<svg xmlns="http://www.w3.org/2000/svg" xml:space="preserve" width="470.74036" height="470.73868" viewBox="0 0 470.74035 470.73866"><g transform="matrix(1.33333 0 0 -1.33333 -111.458 847.198)"><circle cx="259.08438" cy="-458.66733" r="156.88791" style="fill:#fff;stroke-width:.225" transform="scale(1 -1)"/><g style="stroke-width:.778692"><path d="M299.188 557.265c-75.917 0-137.46-61.543-137.46-137.461-.001-75.916 61.543-137.46 137.46-137.46 75.916 0 137.46 61.544 137.46 137.46 0 75.918-61.544 137.461-137.46 137.461m0-237.726c-55.375 0-100.266 44.89-100.266 100.265s44.89 100.266 100.266 100.266c55.375 0 100.265-44.89 100.265-100.266 0-55.374-44.89-100.265-100.265-100.265" style="fill:#176fc1;fill-opacity:1;fill-rule:nonzero;stroke:none;stroke-width:.778692" transform="matrix(1.2842 0 0 1.2842 -124.097 -80.244)"/><path d="m215.87 520.052 2.738 2.329 8.97-10.541q2.173-2.557 2.725-4.242.551-1.685.103-3.222-.45-1.535-1.938-2.803-1.968-1.674-4.228-1.277t-4.58 3.102l2.28 2.589q1.288-1.42 2.14-1.749 1.16-.456 2.056.305.873.743.77 1.702-.105.96-1.883 3.05zM229.913 517.297q-2.029 3.336-2.353 6.096t.624 4.784q.95 2.026 3.218 3.405 3.287 1.997 6.883.747t6.414-5.886q2.85-4.687 2.261-8.656-.506-3.5-3.807-5.506-3.324-2.022-6.65-.885-3.795 1.303-6.59 5.9m3.109 2.065q1.958-3.221 4.162-4.087 2.204-.867 4.016.235 1.824 1.109 2.051 3.436t-1.784 5.637q-1.974 3.247-4.086 4.09-2.11.845-4-.303-1.888-1.148-2.122-3.435t1.763-5.573M248.83 528.306q-1.38 3.652-1.194 6.423.188 2.774 1.493 4.59t3.789 2.755q3.598 1.36 6.903-.53t5.223-6.964q1.941-5.13.633-8.924-1.141-3.348-4.754-4.714-3.64-1.376-6.7.352-3.49 1.978-5.393 7.012m3.435 1.458q1.333-3.526 3.34-4.783 2.007-1.256 3.99-.506 1.997.755 2.65 3 .65 2.246-.72 5.87-1.343 3.553-3.264 4.771-1.921 1.216-3.988.436-2.066-.782-2.717-2.987-.65-2.205.71-5.801M272.162 525.111l-4.008 21.508 3.46.645 9.905-13.016-2.677 14.362 3.312.618 4.009-21.508-3.578-.667-9.724 12.7 2.614-14.024zM298.647 536.306l-.029 3.684 7.772.064.072-8.701q-1.167-1.395-3.321-2.413-2.152-1.015-4.33-1.033-2.652-.022-4.69 1.265-2.04 1.287-3.246 3.879-1.206 2.59-1.236 6.108-.029 3.608 1.15 6.18 1.18 2.574 3.087 3.858 1.906 1.282 4.578 1.304 3.209.027 5.153-1.589 1.947-1.616 2.525-4.772l-3.543-.837q-.418 1.674-1.503 2.555-1.087.882-2.584.87-2.322-.02-3.743-1.827-1.424-1.808-1.393-5.487.032-3.948 1.61-5.992 1.349-1.761 3.629-1.743 1.064.008 2.208.516a6.9 6.9 0 0 1 2.036 1.379l-.023 2.767zM313.861 549.52l6.501-1.1q2.467-.416 3.628-1.18t1.998-2.252q.835-1.489 1.083-3.68t-.275-5.295q-.474-2.797-1.453-4.757-.982-1.962-2.154-3.004a6.3 6.3 0 0 0-2.648-1.421q-1.475-.38-3.632-.015l-6.694 1.131zm2.929-4.23-2.417-14.308 2.678-.453q1.72-.29 2.546-.097.827.193 1.43.767.604.571 1.167 1.931.562 1.36.954 3.674.405 2.402.309 3.843t-.662 2.354a3.33 3.33 0 0 1-1.52 1.333q-.719.32-2.866.682zM331.376 534.993q1.317 3.676 3.258 5.664 1.94 1.989 4.111 2.525 2.173.535 4.671-.36 3.62-1.299 4.911-4.88 1.29-3.583-.54-8.69-1.852-5.163-5.308-7.202-3.039-1.807-6.674-.505-3.664 1.313-4.871 4.613-1.374 3.77.442 8.835m3.56-1.118q-1.272-3.548-.56-5.807.713-2.258 2.71-2.973 2.01-.72 3.96.566 1.953 1.287 3.26 4.934 1.282 3.576.611 5.749-.674 2.172-2.753 2.918-2.081.745-4.006-.511t-3.222-4.876M347.063 517.433l10.914 18.96 3.048-1.755-.916-16.33 7.29 12.662 2.92-1.68-10.915-18.962-3.152 1.815.848 15.973-7.118-12.365zM374.469 508.732l2.374 2.817 5.944-5.007-5.606-6.655q-1.795-.3-4.091.328-2.295.63-3.961 2.032-2.03 1.71-2.74 4.013t.058 5.056q.77 2.753 3.036 5.443 2.323 2.76 4.894 3.946 2.57 1.188 4.852.921 2.284-.266 4.327-1.986 2.452-2.067 2.88-4.56.426-2.494-1.187-5.266l-3.236 1.668q.772 1.544.52 2.92-.249 1.375-1.395 2.34-1.775 1.495-4.032 1.048-2.256-.447-4.627-3.262-2.543-3.02-2.676-5.597-.12-2.217 1.623-3.685.815-.686 2.012-1.044 1.2-.358 2.444-.277l1.783 2.116zM191.251 362.196l2.2-2.814q-3.213-2.668-1.485-5.485.855-1.395 2.068-1.752t2.281.298q.63.385.895.938.267.552.195 1.304-.071.749-.748 3.364-.615 2.338-.476 3.681.136 1.346.943 2.583a6.6 6.6 0 0 0 2.114 2.041q1.525.936 3.172.989a5.33 5.33 0 0 0 3.017-.786q1.373-.842 2.474-2.639 1.655-2.7 1.116-5.116-.54-2.416-3.216-4.18l-2.055 3.008q1.387 1.133 1.577 2.177t-.575 2.293q-.765 1.248-1.696 1.605-.93.359-1.7-.113-.756-.464-.893-1.4-.138-.938.57-3.525.732-2.746.623-4.238a5.66 5.66 0 0 0-.947-2.758q-.84-1.268-2.516-2.294-2.425-1.486-4.991-1.007-2.566.482-4.512 3.656-3.441 5.615 2.565 10.17M196.21 341.367l16.73 14.098 8.568-10.17-2.817-2.373-6.253 7.42-3.71-3.126 5.819-6.905-2.817-2.373-5.818 6.905-4.57-3.85 6.456-7.662-2.817-2.373zM215.584 335.388q2.535 2.967 5.056 4.137 2.52 1.172 4.74.9 2.22-.269 4.24-1.993 2.922-2.498 2.858-6.306-.066-3.807-3.59-7.93-3.564-4.171-7.518-4.85-3.483-.612-6.42 1.897-2.958 2.529-2.916 6.042.054 4.011 3.55 8.103m2.93-2.31q-2.449-2.865-2.583-5.23-.135-2.364 1.477-3.742 1.623-1.385 3.904-.876 2.28.51 4.8 3.455 2.466 2.888 2.61 5.158.141 2.27-1.537 3.705-1.68 1.435-3.927.945-2.246-.492-4.743-3.415M237.826 331.35l3.086-1.841-6.07-10.168q-1.414-2.37-1.726-3.156-.535-1.365-.157-2.512.378-1.146 1.66-1.91 1.086-.65 2.059-.58.972.072 1.732.773.76.7 2.436 3.506l6.199 10.386 3.085-1.842-5.885-9.861q-2.256-3.78-3.665-5.221-1.41-1.443-3.45-1.64-2.042-.198-4.363 1.189-2.413 1.44-3.25 3.112-.84 1.671-.512 3.604t2.843 6.147zM244.837 302.373l8.22 20.081 3.326-1.361-6.823-16.672 8.356-3.42-1.395-3.41zM277.769 309.983l-3.858-.923.164 2.336c1.88 1.001 5.551 2.824 5.551 2.824l2.353-.417-4.113-21.534-3.398.649 2.967 15.533zM284.747 296.31l3.393.21q.057-2.435 1.702-2.553 1.11-.079 1.904 1.084.793 1.162 1.258 4.855-.702-.864-1.534-1.267a3.5 3.5 0 0 0-1.808-.334q-2.03.142-3.453 2.194-1.425 2.054-1.196 5.267.245 3.437 2.031 5.29 1.79 1.854 4.207 1.682 2.703-.194 4.272-2.861 1.573-2.67 1.155-8.559-.427-5.995-2.43-8.493-2.002-2.496-4.896-2.29-2.01.14-3.22 1.565-1.212 1.422-1.385 4.21m8.31 8.57q.144 2.046-.544 3.198-.69 1.152-1.662 1.22-.945.068-1.636-.792-.69-.86-.84-2.966-.15-2.104.466-3.133.616-1.027 1.62-1.097.959-.069 1.71.817.753.885.885 2.753M305.094 312.597q2.603.143 4.346-2.242 1.744-2.386 2.086-8.568.342-6.168-1.128-8.73-1.47-2.565-4.057-2.707-2.606-.146-4.346 2.22-1.742 2.363-2.089 8.618-.339 6.138 1.13 8.702 1.47 2.564 4.058 2.707m.199-3.453q-.995-.056-1.51-1.427-.518-1.372-.241-6.372t.94-6.298q.666-1.299 1.66-1.245 1.005.056 1.516 1.427.51 1.372.236 6.357-.278 5-.936 6.306-.66 1.308-1.665 1.252M325.15 309.883l-3.232-1.053q-.667 2.344-2.308 2.042-1.07-.198-1.552-1.531-.486-1.335.004-5.02.46 1.024 1.151 1.621.69.599 1.626.77 2.062.381 3.951-1.257 1.89-1.64 2.477-4.822.623-3.389-.645-5.615-1.27-2.228-3.669-2.67-2.635-.487-4.83 1.704-2.2 2.19-3.27 8.003-1.088 5.898.225 8.819 1.314 2.92 4.123 3.44 1.935.356 3.512-.723 1.575-1.08 2.437-3.708m-5.895-10.394q.374-2.024 1.321-2.956.95-.931 1.911-.755.934.174 1.39 1.176.458 1.003.084 3.026-.388 2.097-1.234 2.935-.85.838-1.841.655-.964-.177-1.465-1.22-.502-1.04-.166-2.86M341.834 297.555l-8.355 20.22 3.322 1.371 3.699-8.953 3.104 11.765 4.51 1.864-2.981-10.378 11.627-9.722-4.37-1.805-8.44 7.629-1.316-4.516 2.521-6.103zM354.674 314.786q-2.068 3.312-2.427 6.068-.357 2.754.568 4.79.928 2.037 3.178 3.445 3.262 2.035 6.874.828t6.484-5.81q2.904-4.653 2.363-8.628-.465-3.505-3.741-5.55-3.301-2.062-6.64-.966-3.808 1.26-6.66 5.823m3.085 2.102q1.996-3.199 4.21-4.037 2.215-.84 4.012.28 1.811 1.132 2.011 3.46.2 2.332-1.85 5.618-2.014 3.221-4.134 4.041-2.123.82-3.996-.352-1.876-1.169-2.081-3.46-.209-2.29 1.828-5.55M379.797 318.47 365.26 334.82l5.69 5.059q2.182 1.94 3.51 2.33t2.895-.163q1.57-.555 2.92-2.072 1.706-1.92 1.823-3.915c.078-1.331-.022-1.7-.98-2.912.948.099 1.39.504 3.144.247.822-.122 1.62-.484 3.409-1.616l3.852-2.648-2.455-2.353-3.702 2.67c-1.855 1.206-2.797 1.228-3.333 1.325-.537.099-1.582-.1-1.97-.227-1.076-.354-1.743-1.186-3.086-2.38l-.554-.493 6.06-6.816zm-5.702 11.822 2.007 1.784q1.837 1.635 2.196 2.243.357.609.231 1.377-.126.771-.852 1.587-.696.785-1.432.983-.733.196-1.428-.099-.489-.214-2.305-1.83l-2.118-1.882zM395.012 332.759l-16.917 13.875 8.433 10.282 2.849-2.337-6.154-7.503 3.752-3.076 5.726 6.981 2.849-2.336-5.728-6.982 4.62-3.789 6.353 7.746 2.849-2.336zM415.198 362.075l-1.983-3.384-5.086 1.184-3.618-6.172 3.555-3.795-1.978-3.375-15.39 17.008 1.995 3.402zm-10.85-1.366-8.248 1.965 5.783-6.17zM395.266 490.997a2.876 2.876 0 1 1-5.751-.001 2.876 2.876 0 0 1 5.75 0M413.78 486.896c-.167 3.591-1.982 1.429-1.982 1.429-4.296-4.644-14.922-18.933-12.49-40.936 0 0 .279-2.155 2.424.28 0 0 13.14 15.691 12.048 39.227M427.42 451.655c.7 3.527-1.583 1.864-1.583 1.864-5.283-3.48-19.025-14.805-21.939-36.748 0 0-.246-2.16 2.421-.31 0 0 16.518 12.084 21.102 35.194M428.731 409.034c1.415 3.305-1.163 2.15-1.163 2.15-5.89-2.308-21.681-10.54-29.079-31.402 0 0-.688-2.061 2.305-.804 0 0 18.663 8.398 27.937 30.056M184.464 486.896c.167 3.591 1.984 1.429 1.984 1.429 4.295-4.644 14.922-18.933 12.49-40.936 0 0-.28-2.155-2.425.28 0 0-13.14 15.691-12.049 39.227M170.825 451.655c-.699 3.527 1.583 1.864 1.583 1.864 5.283-3.48 19.026-14.805 21.94-36.748 0 0 .244-2.16-2.422-.31 0 0-16.518 12.084-21.1 35.194M169.514 409.034c-1.414 3.305 1.163 2.15 1.163 2.15 5.89-2.308 21.681-10.54 29.079-31.402 0 0 .688-2.061-2.305-.804 0 0-18.663 8.398-27.937 30.056M208.022 490.997a2.875 2.875 0 1 1-5.75 0 2.875 2.875 0 0 1 5.75 0" style="fill:#176fc1;fill-opacity:1;fill-rule:nonzero;stroke:none;stroke-width:.778692" transform="matrix(1.2842 0 0 1.2842 -124.097 -80.244)"/><path d="M299.188 557.265c-75.917 0-137.46-61.543-137.46-137.461-.001-75.916 61.543-137.46 137.46-137.46 75.916 0 137.46 61.544 137.46 137.46 0 75.918-61.544 137.461-137.46 137.461m0-237.726c-55.375 0-100.266 44.89-100.266 100.265s44.89 100.266 100.266 100.266c55.375 0 100.265-44.89 100.265-100.266 0-55.374-44.89-100.265-100.265-100.265" style="fill:#2252ab;fill-opacity:1;fill-rule:nonzero;stroke:none;stroke-width:.778692" transform="matrix(1.2842 0 0 1.2842 -124.097 -80.244)"/><path d="m215.87 520.052 2.738 2.329 8.97-10.541q2.173-2.557 2.725-4.242.551-1.685.103-3.222-.45-1.535-1.938-2.803-1.968-1.674-4.228-1.277t-4.58 3.102l2.28 2.589q1.288-1.42 2.14-1.749 1.16-.456 2.056.305.873.743.77 1.702-.105.96-1.883 3.05zM229.913 517.297q-2.029 3.336-2.353 6.096t.624 4.784q.95 2.026 3.218 3.405 3.287 1.997 6.883.747t6.414-5.886q2.85-4.687 2.261-8.656-.506-3.5-3.807-5.506-3.324-2.022-6.65-.885-3.795 1.303-6.59 5.9m3.109 2.065q1.958-3.221 4.162-4.087 2.204-.867 4.016.235 1.824 1.109 2.051 3.436t-1.784 5.637q-1.974 3.247-4.086 4.09-2.11.845-4-.303-1.888-1.148-2.122-3.435t1.763-5.573M248.83 528.306q-1.38 3.652-1.194 6.423.188 2.774 1.493 4.59t3.789 2.755q3.598 1.36 6.903-.53t5.223-6.964q1.941-5.13.633-8.924-1.141-3.348-4.754-4.714-3.64-1.376-6.7.352-3.49 1.978-5.393 7.012m3.435 1.458q1.333-3.526 3.34-4.783 2.007-1.256 3.99-.506 1.997.755 2.65 3 .65 2.246-.72 5.87-1.343 3.553-3.264 4.771-1.921 1.216-3.988.436-2.066-.782-2.717-2.987-.65-2.205.71-5.801M272.162 525.111l-4.008 21.508 3.46.645 9.905-13.016-2.677 14.362 3.312.618 4.009-21.508-3.578-.667-9.724 12.7 2.614-14.024zM298.647 536.306l-.029 3.684 7.772.064.072-8.701q-1.167-1.395-3.321-2.413-2.152-1.015-4.33-1.033-2.652-.022-4.69 1.265-2.04 1.287-3.246 3.879-1.206 2.59-1.236 6.108-.029 3.608 1.15 6.18 1.18 2.574 3.087 3.858 1.906 1.282 4.578 1.304 3.209.027 5.153-1.589 1.947-1.616 2.525-4.772l-3.543-.837q-.418 1.674-1.503 2.555-1.087.882-2.584.87-2.322-.02-3.743-1.827-1.424-1.808-1.393-5.487.032-3.948 1.61-5.992 1.349-1.761 3.629-1.743 1.064.008 2.208.516a6.9 6.9 0 0 1 2.036 1.379l-.023 2.767zM313.861 549.52l6.501-1.1q2.467-.416 3.628-1.18t1.998-2.252q.835-1.489 1.083-3.68t-.275-5.295q-.474-2.797-1.453-4.757-.982-1.962-2.154-3.004a6.3 6.3 0 0 0-2.648-1.421q-1.475-.38-3.632-.015l-6.694 1.131zm2.929-4.23-2.417-14.308 2.678-.453q1.72-.29 2.546-.097.827.193 1.43.767.604.571 1.167 1.931.562 1.36.954 3.674.405 2.402.309 3.843t-.662 2.354a3.33 3.33 0 0 1-1.52 1.333q-.719.32-2.866.682zM331.376 534.993q1.317 3.676 3.258 5.664 1.94 1.989 4.111 2.525 2.173.535 4.671-.36 3.62-1.299 4.911-4.88 1.29-3.583-.54-8.69-1.852-5.163-5.308-7.202-3.039-1.807-6.674-.505-3.664 1.313-4.871 4.613-1.374 3.77.442 8.835m3.56-1.118q-1.272-3.548-.56-5.807.713-2.258 2.71-2.973 2.01-.72 3.96.566 1.953 1.287 3.26 4.934 1.282 3.576.611 5.749-.674 2.172-2.753 2.918-2.081.745-4.006-.511t-3.222-4.876M347.063 517.433l10.914 18.96 3.048-1.755-.916-16.33 7.29 12.662 2.92-1.68-10.915-18.962-3.152 1.815.848 15.973-7.118-12.365zM374.469 508.732l2.374 2.817 5.944-5.007-5.606-6.655q-1.795-.3-4.091.328-2.295.63-3.961 2.032-2.03 1.71-2.74 4.013t.058 5.056q.77 2.753 3.036 5.443 2.323 2.76 4.894 3.946 2.57 1.188 4.852.921 2.284-.266 4.327-1.986 2.452-2.067 2.88-4.56.426-2.494-1.187-5.266l-3.236 1.668q.772 1.544.52 2.92-.249 1.375-1.395 2.34-1.775 1.495-4.032 1.048-2.256-.447-4.627-3.262-2.543-3.02-2.676-5.597-.12-2.217 1.623-3.685.815-.686 2.012-1.044 1.2-.358 2.444-.277l1.783 2.116zM191.251 362.196l2.2-2.814q-3.213-2.668-1.485-5.485.855-1.395 2.068-1.752t2.281.298q.63.385.895.938.267.552.195 1.304-.071.749-.748 3.364-.615 2.338-.476 3.681.136 1.346.943 2.583a6.6 6.6 0 0 0 2.114 2.041q1.525.936 3.172.989a5.33 5.33 0 0 0 3.017-.786q1.373-.842 2.474-2.639 1.655-2.7 1.116-5.116-.54-2.416-3.216-4.18l-2.055 3.008q1.387 1.133 1.577 2.177t-.575 2.293q-.765 1.248-1.696 1.605-.93.359-1.7-.113-.756-.464-.893-1.4-.138-.938.57-3.525.732-2.746.623-4.238a5.66 5.66 0 0 0-.947-2.758q-.84-1.268-2.516-2.294-2.425-1.486-4.991-1.007-2.566.482-4.512 3.656-3.441 5.615 2.565 10.17M196.21 341.367l16.73 14.098 8.568-10.17-2.817-2.373-6.253 7.42-3.71-3.126 5.819-6.905-2.817-2.373-5.818 6.905-4.57-3.85 6.456-7.662-2.817-2.373zM215.584 335.388q2.535 2.967 5.056 4.137 2.52 1.172 4.74.9 2.22-.269 4.24-1.993 2.922-2.498 2.858-6.306-.066-3.807-3.59-7.93-3.564-4.171-7.518-4.85-3.483-.612-6.42 1.897-2.958 2.529-2.916 6.042.054 4.011 3.55 8.103m2.93-2.31q-2.449-2.865-2.583-5.23-.135-2.364 1.477-3.742 1.623-1.385 3.904-.876 2.28.51 4.8 3.455 2.466 2.888 2.61 5.158.141 2.27-1.537 3.705-1.68 1.435-3.927.945-2.246-.492-4.743-3.415M237.826 331.35l3.086-1.841-6.07-10.168q-1.414-2.37-1.726-3.156-.535-1.365-.157-2.512.378-1.146 1.66-1.91 1.086-.65 2.059-.58.972.072 1.732.773.76.7 2.436 3.506l6.199 10.386 3.085-1.842-5.885-9.861q-2.256-3.78-3.665-5.221-1.41-1.443-3.45-1.64-2.042-.198-4.363 1.189-2.413 1.44-3.25 3.112-.84 1.671-.512 3.604t2.843 6.147zM244.837 302.373l8.22 20.081 3.326-1.361-6.823-16.672 8.356-3.42-1.395-3.41zM277.769 309.983l-3.858-.923.164 2.336c1.88 1.001 5.551 2.824 5.551 2.824l2.353-.417-4.113-21.534-3.398.649 2.967 15.533zM284.747 296.31l3.393.21q.057-2.435 1.702-2.553 1.11-.079 1.904 1.084.793 1.162 1.258 4.855-.702-.864-1.534-1.267a3.5 3.5 0 0 0-1.808-.334q-2.03.142-3.453 2.194-1.425 2.054-1.196 5.267.245 3.437 2.031 5.29 1.79 1.854 4.207 1.682 2.703-.194 4.272-2.861 1.573-2.67 1.155-8.559-.427-5.995-2.43-8.493-2.002-2.496-4.896-2.29-2.01.14-3.22 1.565-1.212 1.422-1.385 4.21m8.31 8.57q.144 2.046-.544 3.198-.69 1.152-1.662 1.22-.945.068-1.636-.792-.69-.86-.84-2.966-.15-2.104.466-3.133.616-1.027 1.62-1.097.959-.069 1.71.817.753.885.885 2.753M305.094 312.597q2.603.143 4.346-2.242 1.744-2.386 2.086-8.568.342-6.168-1.128-8.73-1.47-2.565-4.057-2.707-2.606-.146-4.346 2.22-1.742 2.363-2.089 8.618-.339 6.138 1.13 8.702 1.47 2.564 4.058 2.707m.199-3.453q-.995-.056-1.51-1.427-.518-1.372-.241-6.372t.94-6.298q.666-1.299 1.66-1.245 1.005.056 1.516 1.427.51 1.372.236 6.357-.278 5-.936 6.306-.66 1.308-1.665 1.252M325.15 309.883l-3.232-1.053q-.667 2.344-2.308 2.042-1.07-.198-1.552-1.531-.486-1.335.004-5.02.46 1.024 1.151 1.621.69.599 1.626.77 2.062.381 3.951-1.257 1.89-1.64 2.477-4.822.623-3.389-.645-5.615-1.27-2.228-3.669-2.67-2.635-.487-4.83 1.704-2.2 2.19-3.27 8.003-1.088 5.898.225 8.819 1.314 2.92 4.123 3.44 1.935.356 3.512-.723 1.575-1.08 2.437-3.708m-5.895-10.394q.374-2.024 1.321-2.956.95-.931 1.911-.755.934.174 1.39 1.176.458 1.003.084 3.026-.388 2.097-1.234 2.935-.85.838-1.841.655-.964-.177-1.465-1.22-.502-1.04-.166-2.86M341.834 297.555l-8.355 20.22 3.322 1.371 3.699-8.953 3.104 11.765 4.51 1.864-2.981-10.378 11.627-9.722-4.37-1.805-8.44 7.629-1.316-4.516 2.521-6.103zM354.674 314.786q-2.068 3.312-2.427 6.068-.357 2.754.568 4.79.928 2.037 3.178 3.445 3.262 2.035 6.874.828t6.484-5.81q2.904-4.653 2.363-8.628-.465-3.505-3.741-5.55-3.301-2.062-6.64-.966-3.808 1.26-6.66 5.823m3.085 2.102q1.996-3.199 4.21-4.037 2.215-.84 4.012.28 1.811 1.132 2.011 3.46.2 2.332-1.85 5.618-2.014 3.221-4.134 4.041-2.123.82-3.996-.352-1.876-1.169-2.081-3.46-.209-2.29 1.828-5.55M379.797 318.47 365.26 334.82l5.69 5.059q2.182 1.94 3.51 2.33t2.895-.163q1.57-.555 2.92-2.072 1.706-1.92 1.823-3.915c.078-1.331-.022-1.7-.98-2.912.948.099 1.39.504 3.144.247.822-.122 1.62-.484 3.409-1.616l3.852-2.648-2.455-2.353-3.702 2.67c-1.855 1.206-2.797 1.228-3.333 1.325-.537.099-1.582-.1-1.97-.227-1.076-.354-1.743-1.186-3.086-2.38l-.554-.493 6.06-6.816zm-5.702 11.822 2.007 1.784q1.837 1.635 2.196 2.243.357.609.231 1.377-.126.771-.852 1.587-.696.785-1.432.983-.733.196-1.428-.099-.489-.214-2.305-1.83l-2.118-1.882zM395.012 332.759l-16.917 13.875 8.433 10.282 2.849-2.337-6.154-7.503 3.752-3.076 5.726 6.981 2.849-2.336-5.728-6.982 4.62-3.789 6.353 7.746 2.849-2.336zM415.198 362.075l-1.983-3.384-5.086 1.184-3.618-6.172 3.555-3.795-1.978-3.375-15.39 17.008 1.995 3.402zm-10.85-1.366-8.248 1.965 5.783-6.17zM395.266 490.997a2.876 2.876 0 1 1-5.751-.001 2.876 2.876 0 0 1 5.75 0M413.78 486.896c-.167 3.591-1.982 1.429-1.982 1.429-4.296-4.644-14.922-18.933-12.49-40.936 0 0 .279-2.155 2.424.28 0 0 13.14 15.691 12.048 39.227M427.42 451.655c.7 3.527-1.583 1.864-1.583 1.864-5.283-3.48-19.025-14.805-21.939-36.748 0 0-.246-2.16 2.421-.31 0 0 16.518 12.084 21.102 35.194M428.731 409.034c1.415 3.305-1.163 2.15-1.163 2.15-5.89-2.308-21.681-10.54-29.079-31.402 0 0-.688-2.061 2.305-.804 0 0 18.663 8.398 27.937 30.056M184.464 486.896c.167 3.591 1.984 1.429 1.984 1.429 4.295-4.644 14.922-18.933 12.49-40.936 0 0-.28-2.155-2.425.28 0 0-13.14 15.691-12.049 39.227M170.825 451.655c-.699 3.527 1.583 1.864 1.583 1.864 5.283-3.48 19.026-14.805 21.94-36.748 0 0 .244-2.16-2.422-.31 0 0-16.518 12.084-21.1 35.194M169.514 409.034c-1.414 3.305 1.163 2.15 1.163 2.15 5.89-2.308 21.681-10.54 29.079-31.402 0 0 .688-2.061-2.305-.804 0 0-18.663 8.398-27.937 30.056M208.022 490.997a2.875 2.875 0 1 1-5.75 0 2.875 2.875 0 0 1 5.75 0" style="fill:#fff;fill-opacity:1;fill-rule:nonzero;stroke:none;stroke-width:.778692" transform="matrix(1.2842 0 0 1.2842 -124.097 -80.244)"/><path d="M376.697 399.472c27.793 63.491-32.824 81.94-32.824 81.94 12.458 3.594 24.678-4.312 24.678-4.312-22.283 34.74-60.858 27.793-60.858 27.793 3.834 3.834 18.21 6.708 18.21 6.708-37.856 8.147-58.94-8.625-58.94-8.625-22.044-12.22-19.168-27.793-19.168-27.793-7.667-5.75-18.449-14.615-18.449-14.615-4.073-2.876-.479-4.553-.479-4.553l3.594-3.115c-15.574-13.417-22.522-25.636-22.522-25.636-3.355-3.354.719-4.792.719-4.792 6.468-3.833 15.573-10.782 15.573-10.782 2.397-2.395 2.875-.958 2.875-.958-.718 9.344 5.99 11.262 5.99 11.262 10.303 4.432 16.053-2.157 16.053-2.157 3.406-3.671 4.166-7.179 3.77-10.145 0 0 .009-6.391-7.086-9.505-8.184-3.591-14.174 2.878-14.174 2.878-3.714 2.277-1.438-1.676-1.438-1.676 3.355-5.032 11.74-16.054 11.74-16.054 4.073-3.594 7.907.24 7.907.24 17.01 8.865 26.595 9.105 26.595 9.105 4.553.478.24-3.834.24-3.834-6.948-6.949-7.667-17.97-7.667-17.97-1.199-35.22 26.355-50.075 26.355-50.075-5.75 23.96 11.5 41.21 11.5 41.21 21.085 22.522 16.533 36.178 16.533 36.178 8.865-15.813-6.469-37.377-6.469-37.377-8.386-14.135-5.032-27.792-5.032-27.792 4.313 9.105 18.929 19.407 18.929 19.407 10.78 7.188 20.603 16.532 20.603 16.532 16.294 12.7 14.616 31.866 14.616 31.866 1.438 13.657-17.25 31.866-17.25 31.866 22.52-11.74 25.876-35.22 25.876-35.22m-131.059 44.086-7.188 5.51v4.073s7.428 4.793 12.22 7.668c0 0 1.198-7.668-5.032-17.251" style="fill:#2252ab;fill-opacity:1;fill-rule:nonzero;stroke:none;stroke-width:.778692" transform="matrix(1.2842 0 0 1.2842 -124.097 -80.244)"/></g></g></svg>